<?xml version="1.0" encoding="UTF-8"?>
<svg width="1024px" height="1024px" viewBox="0 0 1024 1024" version="1.1" xmlns="http://www.w3.org/2000/svg" xmlns:xlink="http://www.w3.org/1999/xlink">
    <title>Icon Artboard</title>
    <defs>
        <linearGradient x1="50%" y1="0%" x2="50%" y2="97.0714415%" id="linearGradient-1">
            <stop stop-color="#3D9BD4" offset="0%"></stop>
            <stop stop-color="#1E60A6" offset="100%"></stop>
        </linearGradient>
    </defs>
    <g id="Icon-Artboard" stroke="none" stroke-width="1" fill="none" fill-rule="evenodd">
        <g id="BG" fill="url(#linearGradient-1)">
            <rect x="0" y="0" width="1024" height="1024"></rect>
        </g>
        <g id="icons6-ui-icons-only_edit" transform="translate(239.000000, 252.000000)" fill="#FFFFFF" fill-rule="nonzero">
            <g id="external-link">
                <path d="M507.558333,0 L354.841667,0 C327.891667,0 314.416667,17.9666667 314.416667,40.425 C314.416667,62.8833333 332.383333,80.85 354.841667,80.85 L408.741667,80.85 L157.208333,327.891667 C139.241667,345.858333 139.241667,368.316667 157.208333,381.791667 C175.175,399.758333 197.633333,399.758333 211.108333,381.791667 L458.15,134.75 L458.15,188.65 C458.15,211.108333 476.116667,229.075 498.575,229.075 C521.033333,229.075 539,211.108333 539,188.65 L539,35.9333333 C539,4.49166667 521.033333,0 507.558333,0 Z" id="Path"></path>
                <path d="M446,356 C423.541667,356 408.741667,377.3 408.741667,399.758333 L408.741667,462.641667 L80.85,462.641667 L80.85,134.75 L143.733333,134.75 C170.683333,134.75 184.158333,116.783333 184.158333,94.325 C184.158333,71.8666667 170.683333,53.9 148.225,53.9 L40.425,53.9 C17.9666667,53.9 0,71.8666667 0,94.325 L0,498.575 C0,521.033333 17.9666667,539 40.425,539 L444.675,539 C467.133333,539 485.1,521.033333 485.1,498.575 L485.1,395.266667 C482,371 468.458333,356 446,356 Z" id="Path"></path>
            </g>
        </g>
    </g>
</svg>